<svg width="404" height="271" viewBox="0 0 404 271" fill="none" xmlns="http://www.w3.org/2000/svg">
<path d="M366.99 0V113.5C366.99 115.58 359.66 115 357.99 115V0H366.99Z" fill="url(#paint0_linear_110_5)"/>
<path d="M347.99 19H338.99V96H347.99V19Z" fill="url(#paint1_linear_110_5)"/>
<path d="M375.99 28.5001C376.48 26.8901 386.2 24.0301 386 31.4801C385.69 43.0801 385.2 54.8401 384.95 66.4601C384.85 71.0401 385.93 83.0801 384.85 86.3601C383.85 89.4101 375.99 87.4801 375.99 87.0001V28.5001Z" fill="url(#paint2_linear_110_5)"/>
<path d="M329.99 78.5C329.35 80.58 319.99 81.45 319.99 77.5V36.5C319.99 34.32 329.99 34.32 329.99 36.5V78.5Z" fill="url(#paint3_linear_110_5)"/>
<path d="M394.99 44.5C395.76 42.01 403.99 42.63 403.99 44.5V70.5C403.99 72.64 394.99 72.64 394.99 70.5C394.99 65.36 393.95 47.84 394.99 44.5Z" fill="url(#paint4_linear_110_5)"/>
<path d="M309.03 66H302V50.5C302 48.36 309.03 48.36 309.03 50.5V66Z" fill="url(#paint5_linear_110_5)"/>
<path d="M292.99 53V62L275 57.99L292.99 53Z" fill="url(#paint6_linear_110_5)"/>
<path d="M152.99 198.96V223.46C152.99 224.78 144.12 234.02 143.16 236.47C146.26 239.22 163.8 261.96 165.49 261.96H183.99C178.2 253.42 169.26 246.38 163.02 238.43C160.47 235.18 157.49 232.35 159.45 227.92L184.98 218.97C186.24 220.15 173.16 234.49 174.42 236.95C179.82 240.57 191.54 259.57 196.01 261.45C200.85 263.49 210.39 260.69 216.04 262.42C219.43 263.46 221.75 268.37 223.99 270.97H129.99C131.43 269.01 135.2 261.97 137.49 261.97H152.99L129.12 235.34L127.06 223.4C120.92 224.17 103.91 220.35 99.44 222.91L72.92 252.39L43.99 257.95L93.24 208.71L152.99 198.96Z" fill="#6C7FFF"/>
<path d="M161.99 217.96V197.46C161.99 194.88 195.18 166.33 198.44 160.91C202.29 144.26 197.48 126.94 199 109.96L235.97 155.43C222.78 186.1 194.56 210.35 161.99 217.96Z" fill="#6C7FFF"/>
<path d="M184.99 100.96C181.64 107.32 165.9 117.71 163.51 122.98C161.07 128.36 165.1 140.75 161.88 146.35L141.99 164.96V119.96C138.01 120.39 132.94 118.89 129.44 120.91L94.49 155.95C90.27 150.56 83.99 150.18 89.97 143.44C94.33 138.52 101.68 132.8 106.52 127.99C115.55 119.03 124.44 109.91 133.49 100.96H184.99Z" fill="#6C7FFF"/>
<path d="M133.99 128.96V144.46C129.92 149.65 96.53 180.91 96.06 183.6C95.84 184.86 100.29 189.87 101.98 188.52L133.99 156.96V173.46C133.99 175.16 112.3 193.91 109.96 197.43L56.99 205.95L133.99 128.96Z" fill="#6C7FFF"/>
<path d="M190.99 157.46L158.91 188.38L124.99 194.95L170.04 149.51C172.34 145.5 170.35 135.61 170.96 130.43C171.76 123.67 186.1 113.28 190.98 107.95V157.45L190.99 157.46Z" fill="#6C7FFF"/>
<path d="M78.99 210.97L28.98 261.45L0 265.96L48.04 217.51C57.81 213.46 68.8 213.48 79 210.98L78.99 210.97Z" fill="#6C7FFF"/>
<path d="M21.99 211.95L80.49 153.98C82.23 156.74 89.44 160.16 87.05 163.49L43.54 208.01L21.99 211.95Z" fill="#6C7FFF"/>
<path d="M147.99 91.96L174.18 46.65C186.04 27.94 214.01 20.07 233.97 29.48C236.79 30.81 240.14 34.18 242.7 34.75C258.14 38.2 280.03 29.02 292.99 43.95L234.99 57.97L291.99 74.95C278.96 82.16 263.79 76.95 250.55 79.02C246.96 79.58 240.61 87.51 240.25 90.58C239.92 93.49 243.6 104.86 243.97 109.47C244.97 121.98 242.81 133.9 239.98 145.95C225.05 129.76 212.1 111.48 197.99 94.46C197.33 93.84 195.02 91.96 194.49 91.96H147.99Z" fill="#6C7FFF"/>
<path d="M217.73 39.11C227.2 37.4 228.68 53.1 218.47 52.85C211.21 52.67 209.19 40.66 217.73 39.11Z" fill="black"/>
<defs>
<linearGradient id="paint0_linear_110_5" x1="284.95" y1="57.79" x2="581.95" y2="56.79" gradientUnits="userSpaceOnUse">
<stop stop-color="white"/>
<stop offset="0.03" stop-color="#F0F2FB"/>
<stop offset="0.14" stop-color="#B9BFED"/>
<stop offset="0.26" stop-color="#8792E1"/>
<stop offset="0.37" stop-color="#5D6CD6"/>
<stop offset="0.49" stop-color="#3B4DCE"/>
<stop offset="0.61" stop-color="#2135C7"/>
<stop offset="0.74" stop-color="#0E24C2"/>
<stop offset="0.86" stop-color="#031ABF"/>
<stop offset="1" stop-color="#0017BF"/>
</linearGradient>
<linearGradient id="paint1_linear_110_5" x1="284.95" y1="57.7" x2="581.95" y2="56.7" gradientUnits="userSpaceOnUse">
<stop stop-color="white"/>
<stop offset="0.03" stop-color="#F0F2FB"/>
<stop offset="0.14" stop-color="#B9BFED"/>
<stop offset="0.26" stop-color="#8792E1"/>
<stop offset="0.37" stop-color="#5D6CD6"/>
<stop offset="0.49" stop-color="#3B4DCE"/>
<stop offset="0.61" stop-color="#2135C7"/>
<stop offset="0.74" stop-color="#0E24C2"/>
<stop offset="0.86" stop-color="#031ABF"/>
<stop offset="1" stop-color="#0017BF"/>
</linearGradient>
<linearGradient id="paint2_linear_110_5" x1="284.95" y1="57.6401" x2="581.95" y2="56.6401" gradientUnits="userSpaceOnUse">
<stop stop-color="white"/>
<stop offset="0.03" stop-color="#F0F2FB"/>
<stop offset="0.14" stop-color="#B9BFED"/>
<stop offset="0.26" stop-color="#8792E1"/>
<stop offset="0.37" stop-color="#5D6CD6"/>
<stop offset="0.49" stop-color="#3B4DCE"/>
<stop offset="0.61" stop-color="#2135C7"/>
<stop offset="0.74" stop-color="#0E24C2"/>
<stop offset="0.86" stop-color="#031ABF"/>
<stop offset="1" stop-color="#0017BF"/>
</linearGradient>
<linearGradient id="paint3_linear_110_5" x1="284.95" y1="57.7" x2="581.95" y2="56.7" gradientUnits="userSpaceOnUse">
<stop stop-color="white"/>
<stop offset="0.03" stop-color="#F0F2FB"/>
<stop offset="0.14" stop-color="#B9BFED"/>
<stop offset="0.26" stop-color="#8792E1"/>
<stop offset="0.37" stop-color="#5D6CD6"/>
<stop offset="0.49" stop-color="#3B4DCE"/>
<stop offset="0.61" stop-color="#2135C7"/>
<stop offset="0.74" stop-color="#0E24C2"/>
<stop offset="0.86" stop-color="#031ABF"/>
<stop offset="1" stop-color="#0017BF"/>
</linearGradient>
<linearGradient id="paint4_linear_110_5" x1="284.95" y1="57.87" x2="581.95" y2="56.87" gradientUnits="userSpaceOnUse">
<stop stop-color="#BCEDFF"/>
<stop offset="0.03" stop-color="#AABAFF"/>
<stop offset="0.14" stop-color="#9CA6F0"/>
<stop offset="0.26" stop-color="#8792E1"/>
<stop offset="0.37" stop-color="#5D6CD6"/>
<stop offset="0.49" stop-color="#3B4DCE"/>
<stop offset="0.61" stop-color="#2135C7"/>
<stop offset="0.74" stop-color="#0E24C2"/>
<stop offset="0.86" stop-color="#031ABF"/>
<stop offset="1" stop-color="#0017BF"/>
</linearGradient>
<linearGradient id="paint5_linear_110_5" x1="284.95" y1="57.52" x2="581.95" y2="56.52" gradientUnits="userSpaceOnUse">
<stop stop-color="white"/>
<stop offset="0.03" stop-color="#F0F2FB"/>
<stop offset="0.14" stop-color="#B9BFED"/>
<stop offset="0.26" stop-color="#8792E1"/>
<stop offset="0.37" stop-color="#5D6CD6"/>
<stop offset="0.49" stop-color="#3B4DCE"/>
<stop offset="0.61" stop-color="#2135C7"/>
<stop offset="0.74" stop-color="#0E24C2"/>
<stop offset="0.86" stop-color="#031ABF"/>
<stop offset="1" stop-color="#0017BF"/>
</linearGradient>
<linearGradient id="paint6_linear_110_5" x1="284.95" y1="57.53" x2="581.95" y2="56.53" gradientUnits="userSpaceOnUse">
<stop stop-color="white"/>
<stop offset="0.03" stop-color="#F0F2FB"/>
<stop offset="0.14" stop-color="#B9BFED"/>
<stop offset="0.26" stop-color="#8792E1"/>
<stop offset="0.37" stop-color="#5D6CD6"/>
<stop offset="0.49" stop-color="#3B4DCE"/>
<stop offset="0.61" stop-color="#2135C7"/>
<stop offset="0.74" stop-color="#0E24C2"/>
<stop offset="0.86" stop-color="#031ABF"/>
<stop offset="1" stop-color="#0017BF"/>
</linearGradient>
</defs>
</svg>
